<?xml version="1.0" encoding="UTF-8" standalone="no"?>
<!DOCTYPE svg PUBLIC "-//W3C//DTD SVG 1.1//EN" "http://www.w3.org/Graphics/SVG/1.1/DTD/svg11.dtd">
<svg width="100%" height="100%" viewBox="0 0 1727 457" version="1.1" xmlns="http://www.w3.org/2000/svg" xmlns:xlink="http://www.w3.org/1999/xlink" xml:space="preserve" xmlns:serif="http://www.serif.com/" style="fill-rule:evenodd;clip-rule:evenodd;stroke-linejoin:round;stroke-miterlimit:2;">
    <g id="Mesa-de-trabajo1" serif:id="Mesa de trabajo1" transform="matrix(1,0,0,1,91.2796,108.3)">
        <rect x="-91.28" y="-108.3" width="1726.81" height="456.221" style="fill:none;"/>
        <g id="Layer-1" serif:id="Layer 1">
        </g>
        <g transform="matrix(4.16667,0,0,4.16667,230.969,67.9329)">
            <g id="Modo-de-aislamiento" serif:id="Modo de aislamiento">
                <g opacity="0.5">
                    <g transform="matrix(1,0,0,1,1.3633,14.4205)">
                        <path d="M0,-3.355L10.183,-3.355C9.934,-4.166 9.51,-4.869 8.914,-5.466C7.862,-6.518 6.597,-7.043 5.118,-7.043C3.639,-7.043 2.374,-6.518 1.323,-5.466C0.699,-4.834 0.258,-4.129 0,-3.355M-0.2,-2.272C-0.227,-2.085 -0.241,-1.885 -0.241,-1.671C-0.241,-0.192 0.283,1.069 1.33,2.111C2.376,3.153 3.639,3.674 5.118,3.674C6.597,3.674 7.862,3.149 8.914,2.097C9.092,1.919 9.261,1.732 9.421,1.536L10.558,1.937C10.424,2.16 10.143,2.481 9.715,2.9C8.45,4.173 6.917,4.811 5.118,4.811C3.336,4.811 1.811,4.176 0.541,2.906C-0.729,1.636 -1.363,0.111 -1.363,-1.671C-1.363,-3.47 -0.729,-5.002 0.541,-6.268C1.811,-7.533 3.336,-8.166 5.118,-8.166C6.917,-8.166 8.45,-7.533 9.715,-6.268C10.829,-5.146 11.386,-3.814 11.386,-2.272L-0.2,-2.272Z" style="fill:rgb(217,218,220);fill-rule:nonzero;"/>
                    </g>
                    <g transform="matrix(1,0,0,1,15.7691,11.5332)">
                        <path d="M0,-3.167L0,7.363L-1.069,7.363L-1.069,-3.167L-2.245,-3.167L-2.245,-4.236L-1.069,-4.236L-1.069,-7.376C-1.015,-8.25 -0.681,-9.002 -0.067,-9.635C0.583,-10.231 1.328,-10.53 2.165,-10.53C2.611,-10.53 3.078,-10.446 3.568,-10.277L3.234,-9.328C2.905,-9.471 2.584,-9.542 2.272,-9.542C1.72,-9.542 1.194,-9.319 0.695,-8.874C0.258,-8.438 0.027,-7.911 0,-7.296L0,-4.236L2.366,-4.236L2.366,-3.167L0,-3.167Z" style="fill:rgb(217,218,220);fill-rule:nonzero;"/>
                    </g>
                    <g transform="matrix(1,0,0,1,23.7744,17.8675)">
                        <path d="M0,-9.635C-0.758,-9.52 -1.501,-9.038 -2.232,-8.192C-2.962,-7.345 -3.328,-6.49 -3.328,-5.626L-3.328,1.029L-4.396,1.029L-4.396,-10.571L-3.328,-10.571L-3.328,-8.058C-2.882,-9.226 -1.969,-10.093 -0.588,-10.664L0,-9.635Z" style="fill:rgb(217,218,220);fill-rule:nonzero;"/>
                    </g>
                    <g transform="matrix(1,0,0,1,25.8321,14.4205)">
                        <path d="M0,-3.355L10.183,-3.355C9.934,-4.166 9.511,-4.869 8.914,-5.466C7.862,-6.518 6.597,-7.043 5.119,-7.043C3.64,-7.043 2.375,-6.518 1.323,-5.466C0.699,-4.834 0.259,-4.129 0,-3.355M-0.2,-2.272C-0.227,-2.085 -0.24,-1.885 -0.24,-1.671C-0.24,-0.192 0.283,1.069 1.33,2.111C2.377,3.153 3.64,3.674 5.119,3.674C6.597,3.674 7.862,3.149 8.914,2.097C9.092,1.919 9.261,1.732 9.422,1.536L10.558,1.937C10.424,2.16 10.143,2.481 9.716,2.9C8.45,4.173 6.918,4.811 5.119,4.811C3.336,4.811 1.811,4.176 0.542,2.906C-0.728,1.636 -1.363,0.111 -1.363,-1.671C-1.363,-3.47 -0.728,-5.002 0.542,-6.268C1.811,-7.533 3.336,-8.166 5.119,-8.166C6.918,-8.166 8.45,-7.533 9.716,-6.268C10.83,-5.146 11.386,-3.814 11.386,-2.272L-0.2,-2.272Z" style="fill:rgb(217,218,220);fill-rule:nonzero;"/>
                    </g>
                    <g transform="matrix(1,0,0,1,40.0913,15.6097)">
                        <path d="M0,-5.72L0,3.287L-1.069,3.287L-1.069,-8.313L0,-8.313L0,-7.565C0.962,-8.527 2.084,-9.007 3.368,-9.007C4.739,-9.007 5.855,-8.577 6.715,-7.718C7.575,-6.859 8.014,-5.778 8.031,-4.478L8.031,3.287L6.976,3.287L6.976,-4.37C6.976,-5.36 6.62,-6.2 5.907,-6.897C5.194,-7.591 4.347,-7.939 3.368,-7.939C2.396,-7.939 1.555,-7.595 0.842,-6.909C0.458,-6.527 0.178,-6.129 0,-5.72" style="fill:rgb(217,218,220);fill-rule:nonzero;"/>
                    </g>
                    <g transform="matrix(-1,0,0,1,102.901,-4.4237)">
                        <rect x="50.916" y="4.424" width="1.069" height="18.896" style="fill:rgb(217,218,220);"/>
                    </g>
                    <g transform="matrix(1,0,0,1,57.1099,16.5321)">
                        <path d="M0,-7.578C-1.047,-6.526 -1.57,-5.262 -1.57,-3.783C-1.57,-2.304 -1.047,-1.043 0,-0.001C1.047,1.041 2.31,1.563 3.789,1.563C5.267,1.563 6.53,1.041 7.577,-0.001C8.624,-1.043 9.147,-2.304 9.147,-3.783C9.147,-5.262 8.624,-6.526 7.577,-7.578C6.53,-8.63 5.267,-9.155 3.789,-9.155C2.31,-9.155 1.047,-8.63 0,-7.578M3.789,-10.277C5.588,-10.277 7.118,-9.644 8.379,-8.38C9.64,-7.114 10.27,-5.582 10.27,-3.783C10.27,-2.001 9.64,-0.475 8.379,0.794C7.118,2.065 5.588,2.699 3.789,2.699C2.007,2.699 0.481,2.065 -0.789,0.794C-2.058,-0.475 -2.693,-2.001 -2.693,-3.783C-2.693,-5.582 -2.058,-7.114 -0.789,-8.38C0.481,-9.644 2.007,-10.277 3.789,-10.277" style="fill:rgb(217,218,220);fill-rule:nonzero;"/>
                    </g>
                    <g transform="matrix(1,0,0,1,75.1577,17.8404)">
                        <path d="M0,-9.314L-5.987,-9.314L-5.987,-10.37L1.831,-10.37L-4.17,-0.012L2.285,-0.012L2.285,1.056L-5.987,1.056L0,-9.314Z" style="fill:rgb(217,218,220);fill-rule:nonzero;"/>
                    </g>
                    <g transform="matrix(1,0,0,1,91.0069,11.694)">
                        <path d="M0,2.098L0,0C-0.196,-1.043 -0.686,-1.956 -1.47,-2.74C-2.521,-3.792 -3.787,-4.317 -5.265,-4.317C-6.744,-4.317 -8.007,-3.792 -9.054,-2.74C-10.101,-1.688 -10.624,-0.423 -10.624,1.055C-10.624,2.535 -10.101,3.795 -9.054,4.837C-8.007,5.879 -6.744,6.401 -5.265,6.401C-3.787,6.401 -2.521,5.875 -1.47,4.824C-0.686,4.039 -0.196,3.131 0,2.098M1.069,7.202L0,7.202L0,4.837C-0.205,5.114 -0.428,5.376 -0.668,5.626C-1.933,6.9 -3.466,7.537 -5.265,7.537C-7.047,7.537 -8.573,6.903 -9.842,5.632C-11.112,4.363 -11.747,2.837 -11.747,1.055C-11.747,-0.744 -11.112,-2.276 -9.842,-3.542C-8.573,-4.806 -7.047,-5.439 -5.265,-5.439C-3.466,-5.439 -1.933,-4.806 -0.668,-3.542C-0.428,-3.293 -0.205,-3.029 0,-2.754L0,-4.397L1.069,-4.397L1.069,7.202Z" style="fill:rgb(217,218,220);fill-rule:nonzero;"/>
                    </g>
                    <g transform="matrix(1,0,0,1,95.6573,15.6097)">
                        <path d="M0,-5.72L0,3.287L-1.069,3.287L-1.069,-8.313L0,-8.313L0,-7.565C0.962,-8.527 2.085,-9.007 3.368,-9.007C4.74,-9.007 5.855,-8.577 6.715,-7.718C7.575,-6.859 8.014,-5.778 8.032,-4.478L8.032,3.287L6.976,3.287L6.976,-4.37C6.976,-5.36 6.62,-6.2 5.907,-6.897C5.195,-7.591 4.348,-7.939 3.368,-7.939C2.396,-7.939 1.555,-7.595 0.842,-6.909C0.459,-6.527 0.178,-6.129 0,-5.72" style="fill:rgb(217,218,220);fill-rule:nonzero;"/>
                    </g>
                    <g transform="matrix(1,0,0,1,108.667,16.5321)">
                        <path d="M0,-7.578C-1.047,-6.526 -1.57,-5.262 -1.57,-3.783C-1.57,-2.304 -1.047,-1.043 0,-0.001C1.047,1.041 2.311,1.563 3.789,1.563C5.268,1.563 6.53,1.041 7.576,-0.001C8.625,-1.043 9.147,-2.304 9.147,-3.783C9.147,-5.262 8.625,-6.526 7.576,-7.578C6.53,-8.63 5.268,-9.155 3.789,-9.155C2.311,-9.155 1.047,-8.63 0,-7.578M3.789,-10.277C5.588,-10.277 7.118,-9.644 8.379,-8.38C9.64,-7.114 10.27,-5.582 10.27,-3.783C10.27,-2.001 9.64,-0.475 8.379,0.794C7.118,2.065 5.588,2.699 3.789,2.699C2.008,2.699 0.481,2.065 -0.788,0.794C-2.058,-0.475 -2.692,-2.001 -2.692,-3.783C-2.692,-5.582 -2.058,-7.114 -0.788,-8.38C0.481,-9.644 2.008,-10.277 3.789,-10.277" style="fill:rgb(217,218,220);fill-rule:nonzero;"/>
                    </g>
                    <g transform="matrix(1,0,0,1,121.957,14.4205)">
                        <path d="M0,-3.355L10.183,-3.355C9.934,-4.166 9.511,-4.869 8.913,-5.466C7.862,-6.518 6.597,-7.043 5.118,-7.043C3.64,-7.043 2.374,-6.518 1.323,-5.466C0.7,-4.834 0.259,-4.129 0,-3.355M-0.2,-2.272C-0.227,-2.085 -0.24,-1.885 -0.24,-1.671C-0.24,-0.192 0.282,1.069 1.33,2.111C2.377,3.153 3.64,3.674 5.118,3.674C6.597,3.674 7.862,3.149 8.913,2.097C9.091,1.919 9.261,1.732 9.422,1.536L10.558,1.937C10.425,2.16 10.144,2.481 9.716,2.9C8.45,4.173 6.918,4.811 5.118,4.811C3.337,4.811 1.812,4.176 0.541,2.906C-0.729,1.636 -1.363,0.111 -1.363,-1.671C-1.363,-3.47 -0.729,-5.002 0.541,-6.268C1.812,-7.533 3.337,-8.166 5.118,-8.166C6.918,-8.166 8.45,-7.533 9.716,-6.268C10.829,-5.146 11.386,-3.814 11.386,-2.272L-0.2,-2.272Z" style="fill:rgb(217,218,220);fill-rule:nonzero;"/>
                    </g>
                    <g transform="matrix(1,0,0,1,144.702,18.8969)">
                        <path d="M0,-11.6L-5.186,0L-5.746,0L-10.878,-11.6L-9.635,-11.6L-5.466,-1.938L-1.243,-11.6L0,-11.6Z" style="fill:rgb(217,218,220);fill-rule:nonzero;"/>
                    </g>
                    <g transform="matrix(1,0,0,1,146.761,14.4205)">
                        <path d="M0,-3.355L10.183,-3.355C9.934,-4.166 9.51,-4.869 8.913,-5.466C7.861,-6.518 6.597,-7.043 5.117,-7.043C3.639,-7.043 2.373,-6.518 1.322,-5.466C0.699,-4.834 0.258,-4.129 0,-3.355M-0.201,-2.272C-0.228,-2.085 -0.241,-1.885 -0.241,-1.671C-0.241,-0.192 0.282,1.069 1.33,2.111C2.376,3.153 3.639,3.674 5.117,3.674C6.597,3.674 7.861,3.149 8.913,2.097C9.091,1.919 9.26,1.732 9.422,1.536L10.557,1.937C10.423,2.16 10.143,2.481 9.715,2.9C8.449,4.173 6.918,4.811 5.117,4.811C3.336,4.811 1.811,4.176 0.541,2.906C-0.729,1.636 -1.363,0.111 -1.363,-1.671C-1.363,-3.47 -0.729,-5.002 0.541,-6.268C1.811,-7.533 3.336,-8.166 5.117,-8.166C6.918,-8.166 8.449,-7.533 9.715,-6.268C10.829,-5.146 11.386,-3.814 11.386,-2.272L-0.201,-2.272Z" style="fill:rgb(217,218,220);fill-rule:nonzero;"/>
                    </g>
                    <g transform="matrix(1,0,0,1,161.02,15.6097)">
                        <path d="M0,-5.72L0,3.287L-1.068,3.287L-1.068,-8.313L0,-8.313L0,-7.565C0.962,-8.527 2.085,-9.007 3.368,-9.007C4.739,-9.007 5.855,-8.577 6.716,-7.718C7.575,-6.859 8.015,-5.778 8.032,-4.478L8.032,3.287L6.976,3.287L6.976,-4.37C6.976,-5.36 6.62,-6.2 5.907,-6.897C5.193,-7.591 4.348,-7.939 3.368,-7.939C2.396,-7.939 1.555,-7.595 0.842,-6.909C0.459,-6.527 0.179,-6.129 0,-5.72" style="fill:rgb(217,218,220);fill-rule:nonzero;"/>
                    </g>
                    <g transform="matrix(1,0,0,1,173.167,13.9649)">
                        <path d="M0,-6.668L0,-11.6L1.056,-11.6L1.056,-6.668L3.421,-6.668L3.421,-5.599L1.056,-5.599L1.056,4.932L0,4.932L0,-5.599L-2.365,-5.599L-2.365,-6.668L0,-6.668Z" style="fill:rgb(217,218,220);fill-rule:nonzero;"/>
                    </g>
                    <g transform="matrix(1,0,0,1,179.315,17.9477)">
                        <path d="M0,-6.307L0,-4.089C0.195,-3.074 0.681,-2.182 1.455,-1.416C2.508,-0.366 3.772,0.161 5.251,0.161C6.73,0.161 7.993,-0.363 9.04,-1.41C10.087,-2.456 10.609,-3.719 10.609,-5.199C10.609,-6.677 10.087,-7.942 9.04,-8.994C7.993,-10.045 6.73,-10.571 5.251,-10.571C3.772,-10.571 2.508,-10.045 1.455,-8.994C0.681,-8.218 0.195,-7.324 0,-6.307M-1.07,-10.651L0,-10.651L0,-9.021C0.195,-9.287 0.418,-9.546 0.668,-9.795C1.933,-11.051 3.461,-11.68 5.251,-11.68C7.042,-11.68 8.57,-11.049 9.835,-9.789C11.1,-8.529 11.733,-6.997 11.733,-5.199C11.733,-3.416 11.1,-1.891 9.835,-0.621C8.57,0.649 7.042,1.284 5.251,1.284C3.461,1.284 1.933,0.646 0.668,-0.627C0.418,-0.877 0.195,-1.136 0,-1.404L0,5.373L-1.07,5.373L-1.07,-10.651Z" style="fill:rgb(217,218,220);fill-rule:nonzero;"/>
                    </g>
                    <g transform="matrix(-1,0,0,1,387.709,-4.4237)">
                        <rect x="193.32" y="4.424" width="1.069" height="18.896" style="fill:rgb(217,218,220);"/>
                    </g>
                    <g transform="matrix(1,0,0,1,208.595,11.694)">
                        <path d="M0,2.098L0,0C-0.196,-1.043 -0.687,-1.956 -1.471,-2.74C-2.521,-3.792 -3.786,-4.317 -5.266,-4.317C-6.744,-4.317 -8.008,-3.792 -9.054,-2.74C-10.101,-1.688 -10.624,-0.423 -10.624,1.055C-10.624,2.535 -10.101,3.795 -9.054,4.837C-8.008,5.879 -6.744,6.401 -5.266,6.401C-3.786,6.401 -2.521,5.875 -1.471,4.824C-0.687,4.039 -0.196,3.131 0,2.098M1.069,7.202L0,7.202L0,4.837C-0.205,5.114 -0.428,5.376 -0.668,5.626C-1.934,6.9 -3.466,7.537 -5.266,7.537C-7.047,7.537 -8.572,6.903 -9.843,5.632C-11.112,4.363 -11.747,2.837 -11.747,1.055C-11.747,-0.744 -11.112,-2.276 -9.843,-3.542C-8.572,-4.806 -7.047,-5.439 -5.266,-5.439C-3.466,-5.439 -1.934,-4.806 -0.668,-3.542C-0.428,-3.293 -0.205,-3.029 0,-2.754L0,-4.397L1.069,-4.397L1.069,7.202Z" style="fill:rgb(217,218,220);fill-rule:nonzero;"/>
                    </g>
                    <g transform="matrix(1,0,0,1,213.244,15.6097)">
                        <path d="M0,-5.72L0,3.287L-1.068,3.287L-1.068,-8.313L0,-8.313L0,-7.565C0.962,-8.527 2.085,-9.007 3.368,-9.007C4.739,-9.007 5.855,-8.577 6.716,-7.718C7.575,-6.859 8.015,-5.778 8.032,-4.478L8.032,3.287L6.977,3.287L6.977,-4.37C6.977,-5.36 6.62,-6.2 5.907,-6.897C5.194,-7.591 4.348,-7.939 3.368,-7.939C2.397,-7.939 1.555,-7.595 0.843,-6.909C0.459,-6.527 0.179,-6.129 0,-5.72" style="fill:rgb(217,218,220);fill-rule:nonzero;"/>
                    </g>
                    <g transform="matrix(1,0,0,1,224.991,15.6097)">
                        <path d="M0,-5.72L0,3.287L-1.068,3.287L-1.068,-8.313L0,-8.313L0,-7.565C0.962,-8.527 2.085,-9.007 3.368,-9.007C4.739,-9.007 5.855,-8.577 6.716,-7.718C7.575,-6.859 8.015,-5.778 8.032,-4.478L8.032,3.287L6.977,3.287L6.977,-4.37C6.977,-5.36 6.62,-6.2 5.907,-6.897C5.194,-7.591 4.348,-7.939 3.368,-7.939C2.397,-7.939 1.555,-7.595 0.843,-6.909C0.459,-6.527 0.179,-6.129 0,-5.72" style="fill:rgb(217,218,220);fill-rule:nonzero;"/>
                    </g>
                    <g transform="matrix(1,0,0,1,236.405,14.4205)">
                        <path d="M0,-3.355L10.183,-3.355C9.933,-4.166 9.51,-4.869 8.912,-5.466C7.861,-6.518 6.597,-7.043 5.117,-7.043C3.639,-7.043 2.373,-6.518 1.322,-5.466C0.698,-4.834 0.258,-4.129 0,-3.355M-0.201,-2.272C-0.228,-2.085 -0.242,-1.885 -0.242,-1.671C-0.242,-0.192 0.282,1.069 1.329,2.111C2.375,3.153 3.639,3.674 5.117,3.674C6.597,3.674 7.861,3.149 8.912,2.097C9.091,1.919 9.26,1.732 9.421,1.536L10.557,1.937C10.423,2.16 10.143,2.481 9.715,2.9C8.449,4.173 6.917,4.811 5.117,4.811C3.336,4.811 1.811,4.176 0.541,2.906C-0.729,1.636 -1.364,0.111 -1.364,-1.671C-1.364,-3.47 -0.729,-5.002 0.541,-6.268C1.811,-7.533 3.336,-8.166 5.117,-8.166C6.917,-8.166 8.449,-7.533 9.715,-6.268C10.828,-5.146 11.386,-3.814 11.386,-2.272L-0.201,-2.272Z" style="fill:rgb(217,218,220);fill-rule:nonzero;"/>
                    </g>
                    <g transform="matrix(1,0,0,1,253.696,17.8675)">
                        <path d="M0,-9.635C-0.757,-9.52 -1.501,-9.038 -2.231,-8.192C-2.962,-7.345 -3.327,-6.49 -3.327,-5.626L-3.327,1.029L-4.396,1.029L-4.396,-10.571L-3.327,-10.571L-3.327,-8.058C-2.882,-9.226 -1.969,-10.093 -0.588,-10.664L0,-9.635Z" style="fill:rgb(217,218,220);fill-rule:nonzero;"/>
                    </g>
                </g>
            </g>
        </g>
    </g>
</svg>
