<?xml version="1.0" encoding="UTF-8" standalone="no"?>
<!DOCTYPE svg PUBLIC "-//W3C//DTD SVG 1.1//EN" "http://www.w3.org/Graphics/SVG/1.1/DTD/svg11.dtd">
<svg width="100%" height="100%" viewBox="0 0 1727 457" version="1.1" xmlns="http://www.w3.org/2000/svg" xmlns:xlink="http://www.w3.org/1999/xlink" xml:space="preserve" xmlns:serif="http://www.serif.com/" style="fill-rule:evenodd;clip-rule:evenodd;stroke-linejoin:round;stroke-miterlimit:2;">
    <g id="Mesa-de-trabajo1" serif:id="Mesa de trabajo1" transform="matrix(1,0,0,1,91.2796,108.3)">
        <rect x="-91.28" y="-108.3" width="1726.81" height="456.221" style="fill:none;"/>
        <g id="Layer-1" serif:id="Layer 1" transform="matrix(4.16667,0,0,4.16667,0.720402,0.700251)">
            <g opacity="0.6">
                <g transform="matrix(1,0,0,1,2.295,45.9431)">
                    <path d="M0,-35.906L0,-14.052L6.883,-14.052C9.884,-14.052 12.456,-15.118 14.598,-17.25C16.738,-19.382 17.81,-21.968 17.81,-25.008C17.81,-28.028 16.738,-30.6 14.598,-32.722C12.456,-34.844 9.884,-35.906 6.883,-35.906L0,-35.906ZM0,-11.729L0,2.323L-2.295,2.323L-2.295,-38.229L8.346,-38.229C11.442,-37.808 14.071,-36.517 16.232,-34.357C18.813,-31.757 20.104,-28.64 20.104,-25.008C20.104,-21.337 18.813,-18.206 16.232,-15.615C13.651,-13.024 10.534,-11.729 6.883,-11.729L0,-11.729Z" style="fill:rgb(217,218,220);fill-rule:nonzero;"/>
                </g>
                <g transform="matrix(1,0,0,1,29.7979,45.9431)">
                    <path d="M0,-35.906L0,-14.052L6.883,-14.052C9.885,-14.052 12.456,-15.118 14.598,-17.25C16.739,-19.382 17.81,-21.968 17.81,-25.008C17.81,-28.028 16.739,-30.6 14.598,-32.722C12.456,-34.844 9.885,-35.906 6.883,-35.906L0,-35.906ZM7.571,-11.729L0,-11.729L0,2.323L-2.294,2.323L-2.294,-38.229L8.346,-38.229C11.443,-37.808 14.072,-36.517 16.232,-34.357C18.813,-31.757 20.104,-28.64 20.104,-25.008C20.104,-21.337 18.813,-18.211 16.232,-15.63C14.436,-13.832 12.38,-12.656 10.066,-12.102L19.416,2.323L16.605,2.323L7.571,-11.729Z" style="fill:rgb(217,218,220);fill-rule:nonzero;"/>
                </g>
                <g transform="matrix(1,0,0,1,79.9581,48.754)">
                    <path d="M0,-48.754L-6.224,-44.023L-8.346,-44.023L-4.216,-48.754L0,-48.754ZM-5.593,-39.29C-10.679,-39.29 -15.028,-37.483 -18.642,-33.87C-22.256,-30.256 -24.062,-25.906 -24.062,-20.821C-24.062,-15.716 -22.256,-11.357 -18.642,-7.743C-15.028,-4.13 -10.679,-2.323 -5.593,-2.323C-0.488,-2.323 3.871,-4.13 7.484,-7.743C11.099,-11.357 12.905,-15.716 12.905,-20.821C12.905,-25.906 11.099,-30.256 7.484,-33.87C3.871,-37.483 -0.488,-39.29 -5.593,-39.29M9.134,-35.519C13.196,-31.456 15.229,-26.557 15.229,-20.821C15.229,-15.066 13.196,-10.156 9.134,-6.094C5.071,-2.031 0.162,0 -5.593,0C-11.329,0 -16.229,-2.031 -20.291,-6.094C-24.354,-10.156 -26.385,-15.066 -26.385,-20.821C-26.385,-26.557 -24.354,-31.456 -20.291,-35.519C-16.229,-39.581 -11.329,-41.613 -5.593,-41.613C0.162,-41.613 5.071,-39.581 9.134,-35.519" style="fill:rgb(217,218,220);fill-rule:nonzero;"/>
                </g>
                <g transform="matrix(1,0,0,1,97.3946,7.7136)">
                    <path d="M0,40.553L12.849,18.27L2.295,0L4.904,0L14.139,16.032L23.402,0L26.013,0L15.43,18.27L28.335,40.553L25.726,40.553L14.139,20.535L2.581,40.553L0,40.553Z" style="fill:rgb(217,218,220);fill-rule:nonzero;"/>
                </g>
                <g transform="matrix(-1,0,0,1,261.612,7.2269)">
                    <rect x="129.659" y="0.487" width="2.294" height="40.553" style="fill:rgb(217,218,220);"/>
                </g>
                <g transform="matrix(1,0,0,1,174.14,48.2669)">
                    <path d="M0,-40.553L0,0L-2.294,0L-2.294,-38.086L-17.981,-17.523L-33.697,-38.086L-33.697,0L-35.992,0L-35.992,-40.553L-32.665,-40.553L-17.981,-21.337L-3.326,-40.553L0,-40.553Z" style="fill:rgb(217,218,220);fill-rule:nonzero;"/>
                </g>
                <g transform="matrix(1,0,0,1,199.006,27.8181)">
                    <path d="M0,0.344L-6.166,-16.662L-12.361,0.344L0,0.344ZM-4.99,-20.104L9.723,20.448L7.312,20.448L0.831,2.61L-13.193,2.61L-19.789,20.448L-22.228,20.448L-7.342,-20.104L-4.99,-20.104Z" style="fill:rgb(217,218,220);fill-rule:nonzero;"/>
                </g>
                <g transform="matrix(1,0,0,1,247.502,48.2669)">
                    <path d="M0,-40.553L0,0L-2.295,0L-2.295,-38.086L-17.982,-17.523L-33.697,-38.086L-33.697,0L-35.992,0L-35.992,-40.553L-32.666,-40.553L-17.982,-21.337L-3.326,-40.553L0,-40.553Z" style="fill:rgb(217,218,220);fill-rule:nonzero;"/>
                </g>
                <g transform="matrix(1,0,0,1,273.656,48.2669)">
                    <path d="M0,-40.553L0,-38.258L-17.98,-38.258L-17.98,-21.423L0,-21.423L0,-19.129L-17.98,-19.129L-17.98,-2.294L0,-2.294L0,0L-20.275,0L-20.275,-40.553L0,-40.553Z" style="fill:rgb(217,218,220);fill-rule:nonzero;"/>
                </g>
                <g transform="matrix(1,0,0,1,282.891,48.2669)">
                    <path d="M0,-40.553L26.959,-2.782L26.959,-40.553L29.254,-40.553L29.254,0L25.727,0L-0.602,-36.882L-0.602,0L-2.896,0L-2.896,-40.553L0,-40.553Z" style="fill:rgb(217,218,220);fill-rule:nonzero;"/>
                </g>
                <g transform="matrix(1,0,0,1,328.721,45.9718)">
                    <path d="M0,-35.963L0,2.295L-2.266,2.295L-2.266,-35.963L-12.533,-35.963L-12.533,-38.258L10.268,-38.258L10.268,-35.963L0,-35.963Z" style="fill:rgb(217,218,220);fill-rule:nonzero;"/>
                </g>
                <g transform="matrix(1,0,0,1,363.395,48.2669)">
                    <path d="M0,-40.553L0,-38.258L-17.982,-38.258L-17.982,-21.423L0,-21.423L0,-19.129L-17.982,-19.129L-17.982,-2.294L0,-2.294L0,0L-20.277,0L-20.277,-40.553L0,-40.553Z" style="fill:rgb(217,218,220);fill-rule:nonzero;"/>
                </g>
            </g>
        </g>
    </g>
</svg>
